<?xml version="1.0" encoding="UTF-8"?>
<svg width="20px" height="20px" viewBox="0 0 20 20" version="1.1" xmlns="http://www.w3.org/2000/svg" xmlns:xlink="http://www.w3.org/1999/xlink">
    <!-- Generator: Sketch 49.2 (51160) - http://www.bohemiancoding.com/sketch -->
    <title>Shape</title>
    <desc>Created with Sketch.</desc>
    <defs></defs>
    <g id="Homepage---Search" stroke="none" stroke-width="1" fill="none" fill-rule="evenodd">
        <g id="Homepage-1170-v1.6" transform="translate(-1110.000000, -3331.000000)" fill="#FFFFFF" fill-rule="nonzero">
            <g id="Footer" transform="translate(0.000000, 3231.000000)">
                <path d="M1114.53333,102.133333 C1114.53333,102.725926 1114.31852,103.22963 1113.88889,103.644444 C1113.45926,104.059259 1112.91111,104.266667 1112.24444,104.266667 C1111.57778,104.266667 1111.03704,104.059259 1110.62222,103.644444 C1110.20741,103.22963 1110,102.718519 1110,102.111111 C1110,101.503704 1110.20741,101 1110.62222,100.6 C1111.03704,100.2 1111.58519,100 1112.26667,100 C1112.94815,100 1113.48889,100.2 1113.88889,100.6 C1114.28889,101 1114.5037,101.511111 1114.53333,102.133333 Z M1110.13333,119.688889 L1110.13333,105.955556 L1114.4,105.955556 L1114.4,119.688889 L1110.13333,119.688889 Z M1116.93333,110.355556 C1116.93333,109.081481 1116.9037,107.614815 1116.84444,105.955556 L1120.53333,105.955556 L1120.75556,107.866667 L1120.84444,107.866667 C1121.73333,106.385185 1123.14074,105.644444 1125.06667,105.644444 C1126.54815,105.644444 1127.74074,106.140741 1128.64444,107.133333 C1129.54815,108.125926 1130,109.6 1130,111.555556 L1130,119.688889 L1125.73333,119.688889 L1125.73333,112.088889 C1125.73333,110.103704 1125.00741,109.111111 1123.55556,109.111111 C1122.51852,109.111111 1121.79259,109.644444 1121.37778,110.711111 C1121.28889,110.888889 1121.24444,111.244444 1121.24444,111.777778 L1121.24444,119.688889 L1116.93333,119.688889 L1116.93333,110.355556 Z" id="Shape"></path>
            </g>
        </g>
    </g>
</svg>