<?xml version="1.0" encoding="UTF-8"?>
<svg width="20px" height="17px" viewBox="0 0 20 17" version="1.1" xmlns="http://www.w3.org/2000/svg" xmlns:xlink="http://www.w3.org/1999/xlink">
    <!-- Generator: Sketch 49.2 (51160) - http://www.bohemiancoding.com/sketch -->
    <title>Shape</title>
    <desc>Created with Sketch.</desc>
    <defs></defs>
    <g id="Homepage---Search" stroke="none" stroke-width="1" fill="none" fill-rule="evenodd">
        <g id="Homepage-1170-v1.6" transform="translate(-1060.000000, -3333.000000)" fill="#FFFFFF" fill-rule="nonzero">
            <g id="Footer" transform="translate(0.000000, 3231.000000)">
                <path d="M1080,103.913043 C1079.47826,104.695652 1078.7971,105.405797 1077.95652,106.043478 L1077.95652,106.565217 C1077.95652,108.449275 1077.52174,110.26087 1076.65217,112 C1075.78261,113.73913 1074.43478,115.210145 1072.6087,116.413043 C1070.78261,117.615942 1068.68116,118.217391 1066.30435,118.217391 C1063.98551,118.217391 1061.88406,117.608696 1060,116.391304 C1060.2029,116.42029 1060.53623,116.434783 1061,116.434783 C1062.91304,116.434783 1064.6087,115.855072 1066.08696,114.695652 C1065.18841,114.666667 1064.3913,114.391304 1063.69565,113.869565 C1063,113.347826 1062.52174,112.666667 1062.26087,111.826087 C1062.4058,111.884058 1062.65942,111.913043 1063.02174,111.913043 C1063.38406,111.913043 1063.73913,111.869565 1064.08696,111.782609 C1063.13043,111.57971 1062.34783,111.101449 1061.73913,110.347826 C1061.13043,109.594203 1060.82609,108.724638 1060.82609,107.73913 L1060.82609,107.695652 C1061.34783,107.985507 1061.95652,108.15942 1062.65217,108.217391 C1061.43478,107.376812 1060.82609,106.231884 1060.82609,104.782609 C1060.82609,104.086957 1061.01449,103.405797 1061.3913,102.73913 C1063.62319,105.463768 1066.44928,106.884058 1069.86957,107 C1069.78261,106.73913 1069.73913,106.434783 1069.73913,106.086957 C1069.73913,104.956522 1070.13768,103.992754 1070.93478,103.195652 C1071.73188,102.398551 1072.71739,102 1073.8913,102 C1075.06522,102 1076.04348,102.42029 1076.82609,103.26087 C1077.69565,103.086957 1078.56522,102.768116 1079.43478,102.304348 C1079.14493,103.26087 1078.55072,104.014493 1077.65217,104.565217 C1078.46377,104.449275 1079.24638,104.231884 1080,103.913043 Z" id="Shape"></path>
            </g>
        </g>
    </g>
</svg>