<?xml version="1.0" encoding="UTF-8"?>
<svg width="56px" height="60px" viewBox="0 0 56 60" version="1.1" xmlns="http://www.w3.org/2000/svg" xmlns:xlink="http://www.w3.org/1999/xlink">
    <!-- Generator: Sketch 49.2 (51160) - http://www.bohemiancoding.com/sketch -->
    <title>office-material</title>
    <desc>Created with Sketch.</desc>
    <defs></defs>
    <g id="Fonctionnalités---Search" stroke="none" stroke-width="1" fill="none" fill-rule="evenodd">
        <g id="Fonctionnalités-Scénarisé-1170-v1.2" transform="translate(-677.000000, -3628.000000)" fill-rule="nonzero">
            <g id="En-quoi-CleverTXT-est-il-différent-?" transform="translate(120.000000, 3531.000000)">
                <g id="Group-9" transform="translate(0.000000, 95.000000)">
                    <g id="Group-6" transform="translate(480.000000, 2.000000)">
                        <g id="office-material" transform="translate(77.000000, 0.000000)">
                            <path d="M35.7664453,60 L20.2491797,60 C19.3921875,60 18.6975,59.3051953 18.6975,58.4483203 L18.6975,1.55167969 C18.6975,0.694804688 19.3923047,0 20.2491797,0 L35.7664453,0 C36.6234375,0 37.318125,0.694804688 37.318125,1.55167969 L37.318125,58.4482031 C37.318125,59.3051953 36.6233203,60 35.7664453,60 Z" id="Shape" fill="#F9BF3A"></path>
                            <path d="M33.1802344,36.2069531 L22.8353906,36.2069531 C22.2641016,36.2069531 21.8008594,35.7437109 21.8008594,35.1724219 L21.8008594,9.3103125 C21.8008594,8.73902344 22.2641016,8.27578125 22.8353906,8.27578125 L33.1802344,8.27578125 C33.7515234,8.27578125 34.2147656,8.73902344 34.2147656,9.3103125 L34.2147656,35.1724219 C34.2147656,35.7437109 33.7515234,36.2069531 33.1802344,36.2069531 Z" id="Shape" fill="#EFF2FA"></path>
                            <g id="Group" transform="translate(23.789062, 15.468750)" fill="#D7DEED">
                                <path d="M7.32222656,2.11746094 L1.11527344,2.11746094 C0.543984375,2.11746094 0.0807421875,1.65421875 0.0807421875,1.08292969 C0.0807421875,0.511640625 0.543984375,0.0483984375 1.11527344,0.0483984375 L7.32222656,0.0483984375 C7.89351563,0.0483984375 8.35675781,0.511640625 8.35675781,1.08292969 C8.35675781,1.65421875 7.89351563,2.11746094 7.32222656,2.11746094 Z" id="Shape"></path>
                                <path d="M7.32222656,6.25535156 L1.11527344,6.25535156 C0.543984375,6.25535156 0.0807421875,5.79210937 0.0807421875,5.22082031 C0.0807421875,4.64953125 0.543984375,4.18628906 1.11527344,4.18628906 L7.32222656,4.18628906 C7.89351563,4.18628906 8.35675781,4.64953125 8.35675781,5.22082031 C8.35675781,5.79210937 7.89351563,6.25535156 7.32222656,6.25535156 Z" id="Shape"></path>
                                <path d="M7.32222656,10.3933594 L1.11527344,10.3933594 C0.543984375,10.3933594 0.0807421875,9.93011719 0.0807421875,9.35882812 C0.0807421875,8.78753906 0.543984375,8.32429687 1.11527344,8.32429687 L7.32222656,8.32429687 C7.89351563,8.32429687 8.35675781,8.78753906 8.35675781,9.35882812 C8.35664063,9.93011719 7.89351563,10.3933594 7.32222656,10.3933594 Z" id="Shape"></path>
                                <path d="M7.32222656,18.6691406 L1.11527344,18.6691406 C0.543984375,18.6691406 0.0807421875,18.2058984 0.0807421875,17.6346094 C0.0807421875,17.0633203 0.543984375,16.6000781 1.11527344,16.6000781 L7.32222656,16.6000781 C7.89351563,16.6000781 8.35675781,17.0633203 8.35675781,17.6346094 C8.35675781,18.2058984 7.89351563,18.6691406 7.32222656,18.6691406 Z" id="Shape"></path>
                            </g>
                            <g id="Group" transform="translate(21.796875, 7.148438)" fill="#C7CFE2">
                                <rect id="Rectangle-path" x="0.003984375" y="20.7826172" width="12.4137891" height="2.06894531"></rect>
                                <path d="M12.4178906,5.26535156 L0.003984375,5.26535156 L0.003984375,1.12746094 C0.003984375,0.556171875 0.467226562,0.0929296875 1.03851562,0.0929296875 L11.3833594,0.0929296875 C11.9546484,0.0929296875 12.4178906,0.556171875 12.4178906,1.12746094 L12.4178906,5.26535156 Z" id="Shape"></path>
                            </g>
                            <circle id="Oval" fill="#464655" cx="28.0078125" cy="45.5172656" r="2.58621094"></circle>
                            <path d="M28.0078125,50.1724219 C25.4407031,50.1724219 23.3526562,48.0842578 23.3526562,45.5172656 C23.3526562,42.9502734 25.4407031,40.8621094 28.0078125,40.8621094 C30.5749219,40.8621094 32.6629687,42.9501562 32.6629687,45.5172656 C32.6629687,48.084375 30.5749219,50.1724219 28.0078125,50.1724219 Z M28.0078125,42.9310547 C26.581875,42.9310547 25.4216016,44.0913281 25.4216016,45.5172656 C25.4216016,46.9432031 26.581875,48.1034766 28.0078125,48.1034766 C29.43375,48.1034766 30.5940234,46.9432031 30.5940234,45.5172656 C30.5940234,44.0913281 29.43375,42.9310547 28.0078125,42.9310547 Z" id="Shape" fill="#EFF2FA"></path>
                            <path d="M54.3870703,60 L38.8699219,60 C38.0129297,60 37.3182422,59.3051953 37.3182422,58.4483203 L37.3182422,1.55167969 C37.318125,0.694804688 38.0129297,0 38.8699219,0 L54.3871875,0 C55.2441797,0 55.9388672,0.694804688 55.9388672,1.55167969 L55.9388672,58.4482031 C55.9388672,59.3051953 55.2440625,60 54.3870703,60 Z" id="Shape" fill="#64CE83"></path>
                            <path d="M51.8008594,36.2069531 L41.4560156,36.2069531 C40.8847266,36.2069531 40.4214844,35.7437109 40.4214844,35.1724219 L40.4214844,9.3103125 C40.4214844,8.73902344 40.8847266,8.27578125 41.4560156,8.27578125 L51.8008594,8.27578125 C52.3721484,8.27578125 52.8353906,8.73902344 52.8353906,9.3103125 L52.8353906,35.1724219 C52.8353906,35.7437109 52.3722656,36.2069531 51.8008594,36.2069531 Z" id="Shape" fill="#EFF2FA"></path>
                            <g id="Group" transform="translate(42.421875, 15.468750)" fill="#D7DEED">
                                <path d="M7.31003906,2.11746094 L1.10308594,2.11746094 C0.531796875,2.11746094 0.0685546875,1.65421875 0.0685546875,1.08292969 C0.0685546875,0.511640625 0.531796875,0.0483984375 1.10308594,0.0483984375 L7.31003906,0.0483984375 C7.88132813,0.0483984375 8.34457031,0.511640625 8.34457031,1.08292969 C8.34457031,1.65421875 7.88132813,2.11746094 7.31003906,2.11746094 Z" id="Shape"></path>
                                <path d="M7.31003906,6.25535156 L1.10308594,6.25535156 C0.531796875,6.25535156 0.0685546875,5.79210937 0.0685546875,5.22082031 C0.0685546875,4.64953125 0.531796875,4.18628906 1.10308594,4.18628906 L7.31003906,4.18628906 C7.88132813,4.18628906 8.34457031,4.64953125 8.34457031,5.22082031 C8.34457031,5.79210937 7.88132813,6.25535156 7.31003906,6.25535156 Z" id="Shape"></path>
                                <path d="M7.31003906,10.3933594 L1.10308594,10.3933594 C0.531796875,10.3933594 0.0685546875,9.93011719 0.0685546875,9.35882812 C0.0685546875,8.78753906 0.531796875,8.32429687 1.10308594,8.32429687 L7.31003906,8.32429687 C7.88132813,8.32429687 8.34457031,8.78753906 8.34457031,9.35882812 C8.34457031,9.93011719 7.88132813,10.3933594 7.31003906,10.3933594 Z" id="Shape"></path>
                                <path d="M7.31003906,18.6691406 L1.10308594,18.6691406 C0.531796875,18.6691406 0.0685546875,18.2058984 0.0685546875,17.6346094 C0.0685546875,17.0633203 0.531796875,16.6000781 1.10308594,16.6000781 L7.31003906,16.6000781 C7.88132813,16.6000781 8.34457031,17.0633203 8.34457031,17.6346094 C8.34457031,18.2058984 7.88132813,18.6691406 7.31003906,18.6691406 Z" id="Shape"></path>
                            </g>
                            <g id="Group" transform="translate(40.312500, 7.148438)" fill="#C7CFE2">
                                <rect id="Rectangle-path" x="0.109101562" y="20.7826172" width="12.4137891" height="2.06894531"></rect>
                                <path d="M12.5230078,5.26535156 L0.109101562,5.26535156 L0.109101562,1.12746094 C0.109101562,0.556171875 0.57234375,0.0929296875 1.14363281,0.0929296875 L11.4884766,0.0929296875 C12.0597656,0.0929296875 12.5230078,0.556171875 12.5230078,1.12746094 L12.5230078,5.26535156 Z" id="Shape"></path>
                            </g>
                            <circle id="Oval" fill="#464655" cx="46.6285547" cy="45.5172656" r="2.58621094"></circle>
                            <path d="M46.6285547,50.1724219 C44.0614453,50.1724219 41.9733984,48.0842578 41.9733984,45.5172656 C41.9733984,42.9502734 44.0614453,40.8621094 46.6285547,40.8621094 C49.1956641,40.8621094 51.2837109,42.9501562 51.2837109,45.5172656 C51.2837109,48.084375 49.1954297,50.1724219 46.6285547,50.1724219 Z M46.6285547,42.9310547 C45.2026172,42.9310547 44.0423437,44.0913281 44.0423437,45.5172656 C44.0423437,46.9432031 45.2026172,48.1034766 46.6285547,48.1034766 C48.0544922,48.1034766 49.2147656,46.9432031 49.2147656,45.5172656 C49.2147656,44.0913281 48.054375,42.9310547 46.6285547,42.9310547 Z" id="Shape" fill="#EFF2FA"></path>
                            <path d="M17.1457031,60 L1.62855469,60 C0.7715625,60 0.076875,59.3051953 0.076875,58.4483203 L0.076875,1.55167969 C0.0767578125,0.694804688 0.7715625,0 1.62855469,0 L17.1457031,0 C18.0026953,0 18.6973828,0.694804688 18.6973828,1.55167969 L18.6973828,58.4482031 C18.6975,59.3051953 18.0026953,60 17.1457031,60 Z" id="Shape" fill="#BE80B7"></path>
                            <path d="M14.5594922,36.2069531 L4.21476562,36.2069531 C3.64347656,36.2069531 3.18023437,35.7437109 3.18023437,35.1724219 L3.18023437,9.3103125 C3.18023437,8.73902344 3.64347656,8.27578125 4.21476563,8.27578125 L14.5596094,8.27578125 C15.1308984,8.27578125 15.5941406,8.73902344 15.5941406,9.3103125 L15.5941406,35.1724219 C15.5940234,35.7437109 15.1307812,36.2069531 14.5594922,36.2069531 Z" id="Shape" fill="#EFF2FA"></path>
                            <g id="Group" transform="translate(5.156250, 15.468750)" fill="#D7DEED">
                                <path d="M7.33429687,2.11746094 L1.12746094,2.11746094 C0.556171875,2.11746094 0.0929296875,1.65421875 0.0929296875,1.08292969 C0.0929296875,0.511640625 0.556171875,0.0483984375 1.12746094,0.0483984375 L7.33441406,0.0483984375 C7.90570312,0.0483984375 8.36894531,0.511640625 8.36894531,1.08292969 C8.36894531,1.65421875 7.90558594,2.11746094 7.33429687,2.11746094 Z" id="Shape"></path>
                                <path d="M7.33429687,6.25535156 L1.12746094,6.25535156 C0.556171875,6.25535156 0.0929296875,5.79210937 0.0929296875,5.22082031 C0.0929296875,4.64953125 0.556171875,4.18628906 1.12746094,4.18628906 L7.33441406,4.18628906 C7.90570312,4.18628906 8.36894531,4.64953125 8.36894531,5.22082031 C8.36894531,5.79210937 7.90558594,6.25535156 7.33429687,6.25535156 Z" id="Shape"></path>
                                <path d="M7.33429687,10.3933594 L1.12746094,10.3933594 C0.556171875,10.3933594 0.0929296875,9.93011719 0.0929296875,9.35882812 C0.0929296875,8.78753906 0.556171875,8.32429687 1.12746094,8.32429687 L7.33441406,8.32429687 C7.90570312,8.32429687 8.36894531,8.78753906 8.36894531,9.35882812 C8.36882812,9.93011719 7.90558594,10.3933594 7.33429687,10.3933594 Z" id="Shape"></path>
                                <path d="M7.33429687,18.6691406 L1.12746094,18.6691406 C0.556171875,18.6691406 0.0929296875,18.2058984 0.0929296875,17.6346094 C0.0929296875,17.0633203 0.556171875,16.6000781 1.12746094,16.6000781 L7.33441406,16.6000781 C7.90570312,16.6000781 8.36894531,17.0633203 8.36894531,17.6346094 C8.36894531,18.2058984 7.90558594,18.6691406 7.33429687,18.6691406 Z" id="Shape"></path>
                            </g>
                            <g id="Group" transform="translate(3.164062, 7.148438)" fill="#C7CFE2">
                                <rect id="Rectangle-path" x="0.016171875" y="20.7826172" width="12.4137891" height="2.06894531"></rect>
                                <path d="M12.4300781,5.26535156 L0.016171875,5.26535156 L0.016171875,1.12746094 C0.016171875,0.556171875 0.479414063,0.0929296875 1.05070312,0.0929296875 L11.3955469,0.0929296875 C11.9668359,0.0929296875 12.4300781,0.556171875 12.4300781,1.12746094 L12.4300781,5.26535156 Z" id="Shape"></path>
                            </g>
                            <circle id="Oval" fill="#464655" cx="9.38707031" cy="45.5172656" r="2.58621094"></circle>
                            <path d="M9.38707031,50.1724219 C6.81996094,50.1724219 4.73191406,48.0842578 4.73191406,45.5172656 C4.73191406,42.9502734 6.81996094,40.8621094 9.38707031,40.8621094 C11.9541797,40.8621094 14.0422266,42.9501562 14.0422266,45.5172656 C14.0422266,48.084375 11.9541797,50.1724219 9.38707031,50.1724219 Z M9.38707031,42.9310547 C7.96113281,42.9310547 6.80085937,44.0913281 6.80085937,45.5172656 C6.80085937,46.9432031 7.96113281,48.1034766 9.38707031,48.1034766 C10.8130078,48.1034766 11.9732812,46.9432031 11.9732812,45.5172656 C11.9732812,44.0913281 10.8130078,42.9310547 9.38707031,42.9310547 Z" id="Shape" fill="#EFF2FA"></path>
                        </g>
                    </g>
                </g>
            </g>
        </g>
    </g>
</svg>