<?xml version="1.0" encoding="UTF-8"?>
<svg width="81px" height="63px" viewBox="0 0 81 63" version="1.1" xmlns="http://www.w3.org/2000/svg" xmlns:xlink="http://www.w3.org/1999/xlink">
    <!-- Generator: Sketch 49.2 (51160) - http://www.bohemiancoding.com/sketch -->
    <title>001-translation copy</title>
    <desc>Created with Sketch.</desc>
    <defs></defs>
    <g id="Fonctionnalités---Search" stroke="none" stroke-width="1" fill="none" fill-rule="evenodd">
        <g id="Fonctionnalités-Scénarisé-1170-v1.2" transform="translate(-425.000000, -3630.000000)" fill-rule="nonzero">
            <g id="En-quoi-CleverTXT-est-il-différent-?" transform="translate(120.000000, 3531.000000)">
                <g id="Group-9" transform="translate(0.000000, 95.000000)">
                    <g id="Group-12" transform="translate(240.000000, 0.000000)">
                        <g id="001-translation-copy" transform="translate(65.000000, 2.000000)">
                            <path d="M14.38425,2.675 L25.1675,2.675 C33.11175,2.675 39.55175,9.115 39.55175,17.05925 L39.55175,26.901125 L39.55175,31.4435 L39.55175,34.46225 C39.55175,36.14 38.19175,37.5 36.514,37.5 C35.400125,37.5 34.375625,36.890375 33.84425,35.9115 L31.41875,31.4435 L14.38425,31.4435 C6.44,31.4435 0,25.0035 0,17.05925 C0,9.115 6.44,2.675 14.38425,2.675 Z" id="Shape" fill="#C7CFE2"></path>
                            <path d="M13.513375,17.3885 C13.513375,18.87075 12.31175,20.0725 10.8295,20.0725 C9.34725,20.0725 8.145625,18.870875 8.145625,17.3885 C8.145625,15.906125 9.34725,14.7045 10.8295,14.7045 C12.31175,14.7045 13.513375,15.90625 13.513375,17.3885 Z M19.775875,14.704625 C18.293625,14.704625 17.092,15.90625 17.092,17.388625 C17.092,18.871 18.293625,20.072625 19.775875,20.072625 C21.258125,20.072625 22.45975,18.871 22.45975,17.388625 C22.45975,15.90625 21.258125,14.704625 19.775875,14.704625 Z M28.72225,14.704625 C27.24,14.704625 26.038375,15.90625 26.038375,17.388625 C26.038375,18.871 27.24,20.072625 28.72225,20.072625 C30.2045,20.072625 31.406125,18.871 31.406125,17.388625 C31.406125,15.90625 30.2045,14.704625 28.72225,14.704625 Z" id="Shape" fill="#464655"></path>
                            <path d="M61.811625,53.008875 L36.7045,64.149125 C35.93875,64.489 35.076625,63.92825 35.076625,63.0905 L35.076625,57.740875 L19.0015,57.740875 C17.8969305,57.740875 17.0015,56.8454445 17.0015,55.740875 L17.0015,48.15975 C17.0015,47.0551805 17.8969305,46.15975 19.0015,46.15975 L35.076625,46.15975 L35.076625,40.810125 C35.076625,39.972375 35.938625,39.411625 36.7045,39.7515 L61.811625,50.891625 C62.7295,51.299125 62.7295,52.60175 61.811625,53.008875 Z" id="Shape" fill="#48C7BF"></path>
                            <path d="M79.810125,31.3582342 L54.703,42.4984842 C53.93725,42.8383592 53.075125,42.2776092 53.075125,41.4398592 L53.075125,36.0902342 L37,36.0902342 C35.8954305,36.0902342 35,35.1948037 35,34.0902342 L35,26.5091092 C35,25.4045397 35.8954305,24.5091092 37,24.5091092 L53.075125,24.5091092 L53.075125,19.1594842 C53.075125,18.3217342 53.937125,17.7609842 54.703,18.1008592 L79.810125,29.2409842 C80.728,29.6484842 80.728,30.9511092 79.810125,31.3582342 Z" id="Shape-Copy" fill="#BE80B7" transform="translate(57.749266, 30.299672) scale(-1, 1) translate(-57.749266, -30.299672) "></path>
                        </g>
                    </g>
                </g>
            </g>
        </g>
    </g>
</svg>