<?xml version="1.0" encoding="UTF-8"?>
<svg width="59px" height="70px" viewBox="0 0 59 70" version="1.1" xmlns="http://www.w3.org/2000/svg" xmlns:xlink="http://www.w3.org/1999/xlink">
    <!-- Generator: Sketch 49.2 (51160) - http://www.bohemiancoding.com/sketch -->
    <title>Group 2 Copy</title>
    <desc>Created with Sketch.</desc>
    <defs></defs>
    <g id="Fonctionnalités---Search" stroke="none" stroke-width="1" fill="none" fill-rule="evenodd">
        <g id="Fonctionnalités-Scénarisé-1170-v1.2" transform="translate(-715.000000, -158.000000)">
            <g id="Onglets" transform="translate(275.000000, 118.000000)">
                <g id="Campagne-libre" transform="translate(320.000000, 0.000000)">
                    <g id="Group-2-Copy" transform="translate(120.000000, 40.000000)">
                        <polygon id="Path-2" fill="#FEEBDC" points="15.3601926 3.02529978 52.8963253 3.02529978 50.3824491 59.6364008 3.5546875 59.6364008 3.5546875 16.7178416 15.3601926 16.7178416"></polygon>
                        <g id="002-file" fill="#FA7D3A" fill-rule="nonzero">
                            <path d="M2.50414965,62.0709435 L51.308428,62.0709435 C52.533863,62.0709435 53.492899,61.1119075 53.492899,59.8864726 L53.492899,2.39759009 C53.492899,1.17215516 52.533863,0.213119119 51.308428,0.213119119 L14.7052192,0.213119119 C14.5453799,0.213119119 14.3322608,0.213119119 14.1724214,0.266398899 C14.1191417,0.266398899 14.0658619,0.319678679 14.0658619,0.319678679 C13.9060225,0.372958459 13.799463,0.426238239 13.6396236,0.479518019 C13.5863439,0.532797799 13.5330641,0.532797799 13.4797843,0.586077579 C13.319945,0.692637138 13.1601056,0.799196698 13.0535461,0.959036038 L0.852476478,15.3445766 C0.692637138,15.5044159 0.586077579,15.7175351 0.479518019,15.9306542 C0.426238239,15.983934 0.426238239,16.0904935 0.426238239,16.1437733 C0.372958459,16.3036126 0.372958459,16.463452 0.319678679,16.6232913 C0.319678679,16.6765711 0.319678679,16.6765711 0.319678679,16.7298509 L0.319678679,59.8331928 C0.319678679,61.1119075 1.3319945,62.0709435 2.50414965,62.0709435 Z M12.5207483,8.36492544 L12.5207483,14.6519395 L7.19277028,14.6519395 L12.5207483,8.36492544 Z M4.68862063,18.9676016 L14.7052192,18.9676016 C15.9306542,18.9676016 16.8896902,18.0085656 16.8896902,16.7831307 L16.8896902,4.58206107 L49.123957,4.58206107 L49.123957,57.7020016 L4.68862063,57.7020016 L4.68862063,18.9676016 Z" id="Shape"></path>
                            <path d="M42.6238239,23.709502 L11.1887538,23.709502 C9.96331884,23.709502 9.0042828,24.6685381 9.0042828,25.893973 C9.0042828,27.119408 9.96331884,28.078444 11.1887538,28.078444 L42.6238239,28.078444 C43.8492588,28.078444 44.8082949,27.119408 44.8082949,25.893973 C44.8082949,24.6685381 43.8492588,23.709502 42.6238239,23.709502 Z" id="Shape"></path>
                            <path d="M42.6238239,34.2588985 L11.1887538,34.2588985 C9.96331884,34.2588985 9.0042828,35.2179345 9.0042828,36.4433694 C9.0042828,37.6688044 9.96331884,38.6278404 11.1887538,38.6278404 L42.6238239,38.6278404 C43.8492588,38.6278404 44.8082949,37.6688044 44.8082949,36.4433694 C44.8082949,35.2712143 43.8492588,34.2588985 42.6238239,34.2588985 Z" id="Shape"></path>
                        </g>
                        <circle id="Oval-2" fill="#ED3273" cx="45.7871472" cy="56.7871472" r="12.7871472"></circle>
                        <path d="M51.5507255,55.1457383 C51.6763291,55.1457383 51.7825854,55.1902726 51.8695655,55.2793413 C51.9565218,55.3684099 52,55.4772716 52,55.6059264 L52,62.4345002 C52,62.5730757 51.9565218,62.6844601 51.8695655,62.768532 C51.7825854,62.8526766 51.6763291,62.8947368 51.5507255,62.8947368 L40.4492745,62.8947368 C40.3236709,62.8947368 40.2173909,62.8526766 40.1304345,62.768532 C40.0434782,62.6844601 40,62.5730272 40,62.4345002 L40,55.6059264 C40,55.4772716 40.0434782,55.3684099 40.1304345,55.2793413 C40.2173909,55.1902726 40.3236709,55.1457383 40.4492745,55.1457383 L41.0869544,55.1457383 L42.0724597,55.1457383 L42.0724597,53.2010723 C42.0724597,52.6270742 42.1811551,52.0827656 42.398546,51.5681467 C42.6159369,51.0535277 42.9082068,50.6081843 43.2753559,50.2321166 C43.6425049,49.8560489 44.0748712,49.5566792 44.5724547,49.3340075 C45.0700383,49.1113358 45.6038537,49 46.1739009,49 C46.7342862,49 47.2584398,49.1088617 47.7463615,49.3265851 C48.2342833,49.5443085 48.6642341,49.83873 49.0362141,50.2098494 C49.408194,50.5809689 49.7028794,51.0164157 49.9202703,51.5161414 C50.1376612,52.0159156 50.2511875,52.5528018 50.2608493,53.1267999 C50.2705111,53.1366964 50.275342,53.1614377 50.275342,53.2010238 C50.275342,53.299989 50.2439411,53.3841094 50.1811156,53.453385 C50.1183849,53.5226606 50.0386039,53.5572985 49.9419857,53.5572985 L49.927493,53.5572985 L48.1884133,53.5572985 C48.0917952,53.5572985 48.0120852,53.5226606 47.9492834,53.453385 C47.8864815,53.3841094 47.855057,53.299989 47.855057,53.2010238 C47.855057,52.9635073 47.8115788,52.7408356 47.7246224,52.5330087 C47.6376661,52.3251819 47.5168934,52.1420962 47.3623043,51.9837519 C47.2077152,51.8254076 47.0289716,51.7017012 46.8260261,51.6126325 C46.623199,51.5235638 46.4057371,51.4790295 46.1738535,51.4790295 C45.9419699,51.4790295 45.724579,51.5235638 45.5216809,51.6126325 C45.3187827,51.7017012 45.1400391,51.8253834 44.98545,51.9837519 C44.830861,52.1420962 44.7100883,52.3251819 44.6231319,52.5330087 C44.5361756,52.7408356 44.4926974,52.9635073 44.4926974,53.2010238 L44.4926974,55.1456897 L48.6376168,55.1456897 L50.9129746,55.1456897 L51.5507255,55.1457383 Z" id="Shape" fill="#FFFFFF" fill-rule="nonzero"></path>
                    </g>
                </g>
            </g>
        </g>
    </g>
</svg>