<?xml version="1.0" encoding="UTF-8"?>
<svg width="70px" height="70px" viewBox="0 0 70 70" version="1.1" xmlns="http://www.w3.org/2000/svg" xmlns:xlink="http://www.w3.org/1999/xlink">
    <!-- Generator: Sketch 49.2 (51160) - http://www.bohemiancoding.com/sketch -->
    <title>001-nature</title>
    <desc>Created with Sketch.</desc>
    <defs></defs>
    <g id="Fonctionnalités---Search" stroke="none" stroke-width="1" fill="none" fill-rule="evenodd">
        <g id="Fonctionnalités-Scénarisé-1170-v1.2" transform="translate(-193.000000, -3628.000000)" fill-rule="nonzero">
            <g id="En-quoi-CleverTXT-est-il-différent-?" transform="translate(120.000000, 3531.000000)">
                <g id="Group-9" transform="translate(0.000000, 95.000000)">
                    <g id="Group-8" transform="translate(0.000000, 2.000000)">
                        <g id="001-nature" transform="translate(73.000000, 0.000000)">
                            <path d="M69.9935,34.8761922 C69.9935,35.3380427 69.98425,35.7976512 69.966,36.2547687 C69.64775,44.4233452 66.507,51.872242 61.48925,57.6603203 C60.87825,58.3680427 60.237,59.050605 59.5685,59.7052669 C53.58225,65.5850178 45.477,69.3348754 36.49975,69.7120285 C36.004,69.7327046 35.5035,69.7441637 35.00075,69.7441637 C34.498,69.7441637 33.9975,69.7327046 33.50175,69.7120285 C24.52475,69.3353737 16.41925,65.5852669 10.433,59.7030249 C9.76425,59.0503559 9.12325,58.3680427 8.50975,57.6605694 C3.492,51.8724911 0.35125,44.4233452 0.033,36.2550178 C0.01475,35.7979004 0.0055,35.3382918 0.0055,34.8764413 C0.0055,34.4145907 0.01475,33.9549822 0.033,33.4978648 C0.35125,25.3292883 3.492,17.8801423 8.50975,12.0923132 C9.12325,11.3845907 9.762,10.7020285 10.4305,10.0473665 C16.41725,4.16512456 24.5225,0.415266904 33.502,0.038113879 C33.99775,0.0174377224 34.49825,0.00597864769 35.001,0.00597864769 C35.50375,0.00597864769 36.00425,0.0174377224 36.5,0.038113879 C45.477,0.414768683 53.5825,4.16487544 59.56875,10.0471174 C60.2375,10.7020285 60.8785,11.3843416 61.4895,12.0920641 C66.50725,17.8801423 69.648,25.3292883 69.96625,33.4976157 C69.9845,33.9549822 69.9935,34.4143416 69.9935,34.8761922 Z" id="Shape" fill="#64CE83"></path>
                            <ellipse id="Oval" fill="#7BE199" cx="35.00075" cy="34.8749466" rx="30.25675" ry="34.868968"></ellipse>
                            <g id="Group" fill="#48A362">
                                <path d="M54.13775,53.9301423 C56.52675,48.3171886 57.81,41.7441637 57.81,34.8754448 C57.81,28.0069751 56.52675,21.4344484 54.138,15.8217438 C56.73175,14.8260498 59.1395,13.6178648 61.30725,12.2113879 L61.4895,12.0918149 C60.8785,11.3840925 60.23725,10.7015302 59.56875,10.0468683 C57.591,11.3051246 55.3645,12.3954804 52.956,13.3007473 C52.4515,12.3195018 51.9115,11.3731317 51.33425,10.4691103 C47.3725,4.26352313 42.151,0.623024911 36.5,0.0749822064 L36.5,0.038113879 C36.20725,0.0259074733 35.91275,0.0181850534 35.61725,0.0127046263 C35.412,0.00473309609 35.20625,0 35.00025,0 C34.794,0 34.5885,0.00473309609 34.383,0.0127046263 C34.088,0.0179359431 33.79425,0.025658363 33.50225,0.0378647687 L33.50225,0.0747330961 C27.85075,0.62252669 22.62875,4.26302491 18.66675,10.4691103 C18.08975,11.3731317 17.54975,12.3195018 17.04525,13.3004982 C14.63675,12.3949822 12.40975,11.3051246 10.43125,10.0468683 C9.7625,10.7017794 9.12375,11.3840925 8.5105,12.0918149 L8.69275,12.2113879 C10.86125,13.6178648 13.269,14.8258007 15.863,15.8217438 C13.6345,21.0577936 12.3695,27.1301068 12.20975,33.4978648 L0.03425,33.4978648 C0.016,33.9549822 0.00675,34.4145907 0.00675,34.8764413 C0.00675,35.3382918 0.016,35.7979004 0.03425,36.2550178 L12.21,36.2550178 C12.37,42.6225267 13.63475,48.6943416 15.86375,53.9303915 C13.2695,54.9265836 10.8615,56.1345196 8.69325,57.5412456 L8.511,57.6608185 C9.1245,58.3685409 9.7655,59.0511032 10.43425,59.703274 C12.412,58.4460142 14.6385,57.3564057 17.04625,56.4511388 C17.5505,57.4318861 18.09025,58.3780071 18.6675,59.2817794 C22.6295,65.4878648 27.8515,69.128363 33.503,69.6761566 L33.503,69.7120285 C33.78925,69.7239858 34.07725,69.7317082 34.36575,69.7371886 C34.577,69.7459075 34.7885,69.7511388 35.001,69.7511388 C35.21325,69.7511388 35.42475,69.7459075 35.63575,69.7371886 C35.92525,69.7317082 36.21375,69.7239858 36.5005,69.7120285 L36.5005,69.6761566 C42.1515,69.1276157 47.37325,65.4876157 51.3345,59.2820285 C51.91175,58.3780071 52.4515,57.4321352 52.95575,56.4508897 C55.36425,57.3566548 57.591,58.4470107 59.56875,59.705516 C60.2375,59.050605 60.8785,58.3682918 61.4895,57.6605694 L61.30725,57.5409964 C59.1395,56.1345196 56.73175,54.9260854 54.13775,53.9301423 Z M54.81225,34.8754448 C54.81225,41.4272954 53.5815,47.6675089 51.29725,52.9486477 C46.74975,51.5391815 41.7345,50.7370463 36.49975,50.6080071 L36.49975,36.2547687 L50.35625,36.2547687 C51.12025,36.2547687 51.73975,35.6374733 51.73975,34.8761922 C51.73975,34.114911 51.12025,33.4976157 50.35625,33.4976157 L36.49975,33.4976157 L36.49975,19.1421352 C41.7345,19.0135943 46.75,18.2119573 51.2975,16.8029893 C53.58175,22.0841281 54.81225,28.3238434 54.81225,34.8754448 Z M48.80475,12.0723843 C49.25425,12.7766192 49.678,13.5109964 50.08025,14.2675445 C45.8785,15.5245552 41.25075,16.255694 36.5,16.3829893 L36.5,3.07925267 C41.10575,3.64124555 45.4285,6.78402135 48.80475,12.0723843 Z M21.196,12.0723843 C24.5725,6.78352313 28.896,3.64074733 33.50225,3.07900356 L33.50225,16.3834875 C28.75225,16.255694 24.12375,15.5245552 19.921,14.2672954 C20.32325,13.5109964 20.7465,12.7766192 21.196,12.0723843 Z M18.70325,16.8027402 C23.25125,18.2119573 28.267,19.0135943 33.50225,19.1421352 L33.50225,33.4978648 L15.20975,33.4978648 C15.36975,27.4504626 16.58,21.7122064 18.70325,16.8027402 Z M15.20975,36.2547687 L33.50225,36.2547687 L33.50225,50.6080071 C28.26725,50.7367972 23.25175,51.5389324 18.70375,52.9488968 C16.58,48.0396797 15.37,42.3019217 15.20975,36.2547687 Z M21.196,57.6787544 C20.7465,56.9747687 20.323,56.2408897 19.92125,55.4843416 C24.12375,54.2268327 28.752,53.4946975 33.50225,53.367153 L33.50225,66.6721352 C28.896,66.1103915 24.5725,62.9676157 21.196,57.6787544 Z M48.80475,57.6787544 C45.4285,62.9671174 41.10575,66.1098932 36.5,66.6718861 L36.5,53.3669039 C41.25025,53.4946975 45.878,54.2263345 50.07975,55.4838434 C49.67775,56.2403915 49.25425,56.9745196 48.80475,57.6787544 Z" id="Shape"></path>
                                <path d="M69.966,33.4976157 L62.46025,33.4976157 C61.69625,33.4976157 61.07675,34.114911 61.07675,34.8761922 C61.07675,35.6374733 61.69625,36.2547687 62.46025,36.2547687 L69.966,36.2547687 C69.98425,35.7976512 69.9935,35.3380427 69.9935,34.8761922 C69.9935,34.4143416 69.9845,33.9549822 69.966,33.4976157 Z" id="Shape"></path>
                            </g>
                        </g>
                    </g>
                </g>
            </g>
        </g>
    </g>
</svg>