<?xml version="1.0" encoding="UTF-8"?>
<svg width="59px" height="70px" viewBox="0 0 59 70" version="1.1" xmlns="http://www.w3.org/2000/svg" xmlns:xlink="http://www.w3.org/1999/xlink">
    <!-- Generator: Sketch 49.2 (51160) - http://www.bohemiancoding.com/sketch -->
    <title>Group 2 Copy</title>
    <desc>Created with Sketch.</desc>
    <defs></defs>
    <g id="Fonctionnalités---Search" stroke="none" stroke-width="1" fill="none" fill-rule="evenodd">
        <g id="Fonctionnalités-Scénarisé-1170-v1.2" transform="translate(-395.000000, -158.000000)">
            <g id="Onglets" transform="translate(275.000000, 118.000000)">
                <g id="Campagne-scénarisée">
                    <g id="Group-2-Copy" transform="translate(120.000000, 40.000000)">
                        <polygon id="Path-2" fill="#FEEBDC" points="15.3601926 3.02529978 52.8963253 3.02529978 50.3824491 59.6364008 3.5546875 59.6364008 3.5546875 16.7178416 15.3601926 16.7178416"></polygon>
                        <g id="002-file" fill="#FA7D3A" fill-rule="nonzero">
                            <path d="M2.50414965,62.0709435 L51.308428,62.0709435 C52.533863,62.0709435 53.492899,61.1119075 53.492899,59.8864726 L53.492899,2.39759009 C53.492899,1.17215516 52.533863,0.213119119 51.308428,0.213119119 L14.7052192,0.213119119 C14.5453799,0.213119119 14.3322608,0.213119119 14.1724214,0.266398899 C14.1191417,0.266398899 14.0658619,0.319678679 14.0658619,0.319678679 C13.9060225,0.372958459 13.799463,0.426238239 13.6396236,0.479518019 C13.5863439,0.532797799 13.5330641,0.532797799 13.4797843,0.586077579 C13.319945,0.692637138 13.1601056,0.799196698 13.0535461,0.959036038 L0.852476478,15.3445766 C0.692637138,15.5044159 0.586077579,15.7175351 0.479518019,15.9306542 C0.426238239,15.983934 0.426238239,16.0904935 0.426238239,16.1437733 C0.372958459,16.3036126 0.372958459,16.463452 0.319678679,16.6232913 C0.319678679,16.6765711 0.319678679,16.6765711 0.319678679,16.7298509 L0.319678679,59.8331928 C0.319678679,61.1119075 1.3319945,62.0709435 2.50414965,62.0709435 Z M12.5207483,8.36492544 L12.5207483,14.6519395 L7.19277028,14.6519395 L12.5207483,8.36492544 Z M4.68862063,18.9676016 L14.7052192,18.9676016 C15.9306542,18.9676016 16.8896902,18.0085656 16.8896902,16.7831307 L16.8896902,4.58206107 L49.123957,4.58206107 L49.123957,57.7020016 L4.68862063,57.7020016 L4.68862063,18.9676016 Z" id="Shape"></path>
                            <path d="M42.6238239,23.709502 L11.1887538,23.709502 C9.96331884,23.709502 9.0042828,24.6685381 9.0042828,25.893973 C9.0042828,27.119408 9.96331884,28.078444 11.1887538,28.078444 L42.6238239,28.078444 C43.8492588,28.078444 44.8082949,27.119408 44.8082949,25.893973 C44.8082949,24.6685381 43.8492588,23.709502 42.6238239,23.709502 Z" id="Shape"></path>
                            <path d="M42.6238239,34.2588985 L11.1887538,34.2588985 C9.96331884,34.2588985 9.0042828,35.2179345 9.0042828,36.4433694 C9.0042828,37.6688044 9.96331884,38.6278404 11.1887538,38.6278404 L42.6238239,38.6278404 C43.8492588,38.6278404 44.8082949,37.6688044 44.8082949,36.4433694 C44.8082949,35.2712143 43.8492588,34.2588985 42.6238239,34.2588985 Z" id="Shape"></path>
                        </g>
                        <circle id="Oval-2" fill="#ED3273" cx="45.8206107" cy="57.0093645" r="12.7871472"></circle>
                        <path d="M48.4068283,52.2141843 L53.2797799,57.0871358 L48.4068283,61.9600873 L47.26473,60.8179896 L50.9955838,57.0871358 L47.26473,53.356282 L48.4068283,52.2141843 Z M44.3764914,53.356282 L40.6456375,57.0871358 L44.3764914,60.8179896 L43.234393,61.9600873 L38.3614415,57.0871358 L43.234393,52.2141843 L44.3764914,53.356282 Z" id="Combined-Shape" fill="#FFFFFF" fill-rule="nonzero"></path>
                    </g>
                </g>
            </g>
        </g>
    </g>
</svg>