<?xml version="1.0" encoding="UTF-8"?>
<svg width="90px" height="90px" viewBox="0 0 90 90" version="1.1" xmlns="http://www.w3.org/2000/svg" xmlns:xlink="http://www.w3.org/1999/xlink">
    <!-- Generator: sketchtool 50.2 (55047) - http://www.bohemiancoding.com/sketch -->
    <title>F3DAC46C-397B-4CEF-A001-659F5E58B4FD</title>
    <desc>Created with sketchtool.</desc>
    <defs></defs>
    <g id="Homepage---Search" stroke="none" stroke-width="1" fill="none" fill-rule="evenodd">
        <g id="2.1-Homepage-1170-v1.4.1-" transform="translate(-540.000000, -4514.000000)">
            <g id="3-points" transform="translate(-3.000000, 4434.000000)">
                <g id="Versio-données-Léa-Copy" transform="translate(423.000000, 80.000000)">
                    <g id="Group-14" transform="translate(120.000000, 0.000000)">
                        <circle id="Oval-2" fill="#BE80B7" cx="45" cy="45" r="45"></circle>
                        <path d="M53.5399056,36 C55.8810636,36 57.8763691,36.838029 59.5258206,38.5140843 C61.1752735,40.1901409 62,42.1987489 62,44.539907 C62,46.881065 61.1752735,48.8896716 59.5258206,50.5657283 C57.8763691,52.2417835 55.8810636,53.0798125 53.5399056,53.0798125 L46.6760566,53.0798125 L46.6760566,49.8075118 L53.5399056,49.8075118 C54.976526,49.8075118 56.213615,49.288733 57.251174,48.251174 C58.2887316,47.213615 58.8075118,45.976526 58.8075118,44.539907 C58.8075118,43.1032866 58.2887316,41.8661976 57.251174,40.8286386 C56.213615,39.7910796 54.976526,39.2723007 53.5399056,39.2723007 L46.6760566,39.2723007 L46.6760566,36 L53.5399056,36 Z M38.2159622,46.2159622 L38.2159622,42.8638503 L51.7840378,42.8638503 L51.7840378,46.2159622 L38.2159622,46.2159622 Z M31.1924882,44.539907 C31.1924882,45.976526 31.7112684,47.213615 32.748826,48.251174 C33.786385,49.288733 35.023474,49.8075118 36.4600944,49.8075118 L43.3239434,49.8075118 L43.3239434,53.0798125 L36.4600944,53.0798125 C34.1189364,53.0798125 32.1236309,52.2417835 30.4741794,50.5657283 C28.8247265,48.8896716 28,46.881065 28,44.539907 C28,42.1987489 28.8247265,40.1901409 30.4741794,38.5140843 C32.1236309,36.838029 34.1189364,36 36.4600944,36 L43.3239434,36 L43.3239434,39.2723007 L36.4600944,39.2723007 C35.023474,39.2723007 33.786385,39.7910796 32.748826,40.8286386 C31.7112684,41.8661976 31.1924882,43.1032866 31.1924882,44.539907 Z" id="Shape" fill="#FFFFFF" fill-rule="nonzero"></path>
                    </g>
                </g>
            </g>
        </g>
    </g>
</svg>