<?xml version="1.0" encoding="UTF-8"?>
<svg width="90px" height="90px" viewBox="0 0 90 90" version="1.1" xmlns="http://www.w3.org/2000/svg" xmlns:xlink="http://www.w3.org/1999/xlink">
    <!-- Generator: sketchtool 50.2 (55047) - http://www.bohemiancoding.com/sketch -->
    <title>F6F57A6C-42F1-40BD-820C-F792FAD75510</title>
    <desc>Created with sketchtool.</desc>
    <defs>
        <path d="M54.5070418,52.3943651 C56.1971826,50.2816897 57.042253,47.8169002 57.042253,44.9999988 C57.042253,41.7136151 55.8568071,38.8849762 53.4859155,36.5140845 C51.1150238,34.1431917 48.2863849,32.9577458 45,32.9577458 C42.1830986,32.9577458 39.7183103,33.8028162 37.6056337,35.492957 L54.5070418,52.3943651 Z M45,57.042253 C47.8169014,57.042253 50.2816897,56.1971826 52.3943663,54.5070418 L35.4929582,37.6056337 C33.8028174,39.7183091 32.957747,42.1830974 32.957747,44.9999988 C32.957747,48.2863849 34.1431929,51.1150226 36.5140845,53.4859143 C38.8849762,55.8568071 41.7136151,57.042253 45,57.042253 Z M45,30 C49.1314553,30 52.6643189,31.467136 55.5985909,34.4014079 C58.532864,37.3356799 60,40.8685435 60,44.9999988 C60,49.1314541 58.532864,52.6643189 55.5985909,55.5985909 C52.6643189,58.5328628 49.1314553,59.9999988 45,59.9999988 C40.8685447,59.9999988 37.3356811,58.5328628 34.4014091,55.5985909 C31.467136,52.6643189 30,49.1314541 30,44.9999988 C30,40.8685435 31.467136,37.3356799 34.4014091,34.4014079 C37.3356811,31.467136 40.8685447,30 45,30 Z" id="path-1"></path>
    </defs>
    <g id="Homepage---Search" stroke="none" stroke-width="1" fill="none" fill-rule="evenodd">
        <g id="2.1-Homepage-1170-v1.4.1-" transform="translate(-190.000000, -4514.000000)">
            <g id="3-points" transform="translate(-3.000000, 4434.000000)">
                <g id="Versio-données-Léa" transform="translate(73.000000, 80.000000)">
                    <g id="Icon" transform="translate(120.000000, 0.000000)">
                        <circle id="Oval-2" fill="#FFA75D" cx="45" cy="45" r="45"></circle>
                        <mask id="mask-2" fill="white">
                            <use xlink:href="#path-1"></use>
                        </mask>
                        <use id="Shape" fill="#FFFFFF" fill-rule="nonzero" xlink:href="#path-1"></use>
                    </g>
                </g>
            </g>
        </g>
    </g>
</svg>